<?xml version="1.0" encoding="UTF-8"?>
<svg xmlns="http://www.w3.org/2000/svg" viewBox="0 0 3382.1 693.27">
  <defs>
    <style>
      .cls-1 {
        fill: #1d1d1b;
      }

      .cls-2 {
        fill: none;
        stroke: #1d1d1b;
        stroke-miterlimit: 10;
        stroke-width: 50px;
      }
    </style>
  </defs>
  <g id="LOGO_TEXT_ARC">
    <path class="cls-1" d="M333.56,406.19H109.75l-50.4,107.4H2.95L195.55,105.59h54.6l192.6,408h-58.8l-50.4-107.4ZM131.35,359.39h180.6l-90-195-90.6,195Z"/>
    <path class="cls-1" d="M848.15,513.59l-121.2-168h-149.2v168h-54V105.59h244.8c85.2,0,133.2,43.2,133.2,120,0,67.2-45.2,108.6-111.8,118.2l123.6,169.8h-65.4ZM577.75,298.79h180.6c58.8,0,88.2-24,88.2-73.2s-29.4-73.2-88.2-73.2h-180.6v146.4Z"/>
    <path class="cls-2" d="M1344.41,420.83c-34.75,40.13-87.69,65.76-146.99,65.76-104.65,0-189.49-79.81-189.49-178.27s84.84-178.27,189.49-178.27c58.87,0,111.46,25.25,146.22,64.87"/>
  </g>
  <g id="LOGO_ZERO_CUT">
    <path id="Z-BOTTOM" d="M1784.34,498.59v-16.8h-247.03c-4.3,5.54-8.57,11.13-12.77,16.8h259.81Z"/>
    <path id="Z-TOP" d="M1453.74,120.59v16.8h278.37c10.65-5.78,21.43-11.38,32.35-16.8h-310.72Z"/>
    <path id="E" class="cls-1" d="M1927.13,315.59h262.8v-16.8h-262.8v-97.88c-6.04,2.15-12.04,4.34-18,6.6v291.08h319.8v-16.8h-301.8v-166.2Z"/>
    <path id="R" class="cls-1" d="M2671.37,296.36c15.37-17.4,23.17-41.21,23.17-70.77,0-17.38-2.65-32.73-7.9-45.97-8.72-2.19-17.56-4.31-26.5-6.35,12,15.84,16.21,34.81,16.21,52.31,0,25.93-10.52,58.08-40.12,75.52-16.52,9.74-36.95,11.33-70.08,12.68h-195.6v-175.18c-5.97-.15-11.96-.28-18-.38v360.36h18v-168h177.88l121.2,168h22.25l-120.9-168s24.5-.86,32.64-1.65c29.81-2.89,52.45-15.24,67.77-32.59Z"/>
    <path id="O-BOTTOM" class="cls-1" d="M3141.09,431.82c-33.04,34.04-80.64,55.44-133.47,55.44-99.52,0-180.49-75.93-180.49-169.27,0-30.32,8.55-58.79,23.49-83.43-5.53-2.37-11.12-4.7-16.77-7-15.75,26.83-24.73,57.66-24.73,90.43,0,103.26,89.04,187.27,198.49,187.27,57.61,0,109.56-23.28,145.85-60.39-4.05-4.36-8.18-8.71-12.39-13.04Z"/>
    <path id="O-TOP" class="cls-1" d="M2993.53,149.23c4.65-.34,9.35-.51,14.09-.51,85.5,0,157.31,56.05,175.84,131.02,7.46,6.53,14.68,13.05,21.66,19.54-9.98-94.51-94.74-168.57-197.5-168.57-14.37,0-28.38,1.46-41.89,4.21,9.37,4.65,18.64,9.42,27.8,14.3Z"/>
  </g>
  <g id="LOGO_BOGEN">
    <path id="ARC-BLACK" class="cls-1" d="M2598.45,72.63c-92.37-14.25-185.91-19.73-279.27-18.45-75.81.93-151.8,7.35-226.48,20.6-202.06,34.7-394.87,123.14-540.1,269.8-41.22,41.36-78.13,86.94-110.81,135.28-3.36,4.99-8.24,12.27-12.7,18.73h22.13c33.54-50.5,71.42-98.21,114.54-140.86,147.62-147.52,343.13-231.38,548.12-260.34,90.64-13.03,182.73-15.89,274.15-11.65,337.31,12.63,683.25,136.9,871.87,427.84h72.2c-162.51-255.04-439.81-397.81-733.65-440.96Z"/>
  </g>
  <g id="PRODUCTIONS">
    <path id="P" class="cls-1" d="M0,691.48v-98h58.36c20.95,0,32.48,10.05,32.48,28.3s-11.54,28.15-32.48,28.15H6.25v41.55H0ZM6.25,645.23h49.78c23.48,0,28.4-12.75,28.4-23.45,0-15.56-9.56-23.45-28.4-23.45H6.25v46.9Z"/>
    <path id="R-2" data-name="R" class="cls-1" d="M417.12,691.48l-33.46-43.65h-48.03v43.65h-6.25v-98h60.83c20.25,0,31.4,9.62,31.4,27.1,0,16.07-9.45,25.7-26.62,27.11l-3.7.3,33.38,43.49h-7.56ZM335.62,642.98h52.42c17.92,0,27.01-7.54,27.01-22.4s-9.09-22.25-27.01-22.25h-52.42v44.65Z"/>
    <path id="O1" class="cls-1" d="M713.38,693.27c-33.05,0-55.26-20.41-55.26-50.8s22.21-50.8,55.26-50.8,55.26,20.41,55.26,50.8-22.21,50.8-55.26,50.8ZM713.38,596.98c-29.13,0-48.7,18.28-48.7,45.5s19.57,45.5,48.7,45.5,48.7-18.28,48.7-45.5-19.57-45.5-48.7-45.5Z"/>
    <path id="D" class="cls-1" d="M1008.25,691.48v-98h44.26c31.59,0,52,19.23,52,49s-20.41,49-52,49h-44.26ZM1014.5,686.63h36.77c28.8,0,46.68-16.92,46.68-44.15s-17.89-44.15-46.68-44.15h-36.77v88.3Z"/>
    <path id="U" class="cls-1" d="M1388.69,693.27c-29.84,0-46.27-13.03-46.27-36.7v-63.1h6.25v61.6c0,21.52,13.84,32.9,40.02,32.9s40.18-11.38,40.18-32.9v-61.6h5.94v62.95c0,23.76-16.38,36.85-46.12,36.85Z"/>
    <path id="C" class="cls-1" d="M1729.53,693.27c-34.51,0-56.81-19.88-56.81-50.65s21.99-50.95,56.03-50.95c13.78,0,25.87,3.24,35.95,9.64l-2.41,4.92c-10.19-6.23-21.14-9.27-33.39-9.27-30.15,0-49.63,17.8-49.63,45.35s20.03,45.65,51.02,45.65c13.55,0,24.91-3.33,35.53-10.44l2.72,5c-9.88,6.84-23.98,10.73-39.02,10.73Z"/>
    <polygon id="T" class="cls-1" points="2040.2 691.48 2040.2 598.33 1996.82 598.33 1996.82 593.48 2089.99 593.48 2089.99 598.33 2046.45 598.33 2046.45 691.48 2040.2 691.48"/>
    <rect id="I" class="cls-1" x="2326.35" y="593.48" width="6.25" height="98"/>
    <path id="O2" class="cls-1" d="M2627.31,693.27c-33.05,0-55.26-20.41-55.26-50.8s22.21-50.8,55.26-50.8,55.26,20.41,55.26,50.8-22.21,50.8-55.26,50.8ZM2627.31,596.98c-29.13,0-48.7,18.28-48.7,45.5s19.57,45.5,48.7,45.5,48.7-18.28,48.7-45.5-19.57-45.5-48.7-45.5Z"/>
    <polygon id="N" class="cls-1" points="3008.01 691.48 2928.12 596.19 2928.12 691.48 2922.18 691.48 2922.18 593.48 2933.39 593.48 3008.94 683.67 3008.94 593.48 3014.88 593.48 3014.88 691.48 3008.01 691.48"/>
    <path id="S" class="cls-1" d="M3300.46,693.27c-18.84,0-35.6-4.92-47.46-13.88l3.04-4.59c11.64,8.5,27.36,13.17,44.57,13.17,24.35,0,38.32-8.33,38.32-22.85s-14.28-18.53-38.95-20.14c-35.94-2.14-43.16-11.33-43.16-25.45,0-17.18,16.25-27.85,42.4-27.85,15.3,0,28.51,3.66,39.28,10.88l-2.74,4.71c-9.96-6.83-22.61-10.29-37.62-10.29-21.11,0-34.76,8.67-34.76,22.1,0,14.9,14.29,18.67,38.97,20.14,35.93,2.15,43.15,11.34,43.15,25.45,0,18.44-15.99,28.6-45.03,28.6Z"/>
  </g>
</svg>